solid 
   facet normal 6.993271e-002 -9.975517e-001 0.000000e+000
      outer loop
         vertex 1.116185e+000 -7.921751e+000 -1.490000e+002
         vertex 1.116185e+000 -7.921751e+000 -1.600000e+001
         vertex 0.000000e+000 -8.000000e+000 -1.600000e+001
      endloop
   endfacet
   facet normal 6.993271e-002 -9.975517e-001 0.000000e+000
      outer loop
         vertex 0.000000e+000 -8.000000e+000 -1.600000e+001
         vertex 0.000000e+000 -8.000000e+000 -1.490000e+002
         vertex 1.116185e+000 -7.921751e+000 -1.490000e+002
      endloop
   endfacet
   facet normal 3.674419e-001 -9.300465e-001 0.000000e+000
      outer loop
         vertex 4.599542e+000 -6.545549e+000 -1.490000e+002
         vertex 1.116185e+000 -7.921751e+000 -1.600000e+001
         vertex 1.116185e+000 -7.921751e+000 -1.490000e+002
      endloop
   endfacet
   facet normal 3.674419e-001 -9.300465e-001 0.000000e+000
      outer loop
         vertex 4.599542e+000 -6.545549e+000 -1.490000e+002
         vertex 4.599542e+000 -6.545549e+000 -1.600000e+001
         vertex 1.116185e+000 -7.921751e+000 -1.600000e+001
      endloop
   endfacet
   facet normal 7.504953e-001 -6.608758e-001 0.000000e+000
      outer loop
         vertex 7.074758e+000 -3.734676e+000 -1.490000e+002
         vertex 4.599542e+000 -6.545549e+000 -1.600000e+001
         vertex 4.599542e+000 -6.545549e+000 -1.490000e+002
      endloop
   endfacet
   facet normal 7.504953e-001 -6.608758e-001 0.000000e+000
      outer loop
         vertex 7.074758e+000 -3.734676e+000 -1.490000e+002
         vertex 7.074758e+000 -3.734676e+000 -1.600000e+001
         vertex 4.599542e+000 -6.545549e+000 -1.600000e+001
      endloop
   endfacet
   facet normal 9.690531e-001 -2.468524e-001 0.000000e+000
      outer loop
         vertex 7.999308e+000 -1.052263e-001 -1.490000e+002
         vertex 7.074758e+000 -3.734676e+000 -1.600000e+001
         vertex 7.074758e+000 -3.734676e+000 -1.490000e+002
      endloop
   endfacet
   facet normal 9.690531e-001 -2.468524e-001 0.000000e+000
      outer loop
         vertex 7.999308e+000 -1.052263e-001 -1.490000e+002
         vertex 7.999308e+000 -1.052263e-001 -1.600000e+001
         vertex 7.074758e+000 -3.734676e+000 -1.600000e+001
      endloop
   endfacet
   facet normal 9.752110e-001 2.212768e-001 0.000000e+000
      outer loop
         vertex 7.170547e+000 3.547287e+000 -1.490000e+002
         vertex 7.999308e+000 -1.052263e-001 -1.600000e+001
         vertex 7.999308e+000 -1.052263e-001 -1.490000e+002
      endloop
   endfacet
   facet normal 9.752110e-001 2.212768e-001 0.000000e+000
      outer loop
         vertex 7.170547e+000 3.547287e+000 -1.490000e+002
         vertex 7.170547e+000 3.547287e+000 -1.600000e+001
         vertex 7.999308e+000 -1.052263e-001 -1.600000e+001
      endloop
   endfacet
   facet normal 7.676195e-001 6.409058e-001 0.000000e+000
      outer loop
         vertex 4.770126e+000 6.422297e+000 -1.490000e+002
         vertex 7.170547e+000 3.547287e+000 -1.600000e+001
         vertex 7.170547e+000 3.547287e+000 -1.490000e+002
      endloop
   endfacet
   facet normal 7.676195e-001 6.409058e-001 0.000000e+000
      outer loop
         vertex 4.770126e+000 6.422297e+000 -1.490000e+002
         vertex 4.770126e+000 6.422297e+000 -1.600000e+001
         vertex 7.170547e+000 3.547287e+000 -1.600000e+001
      endloop
   endfacet
   facet normal 3.917790e-001 9.200594e-001 0.000000e+000
      outer loop
         vertex 1.324175e+000 7.889649e+000 -1.490000e+002
         vertex 4.770126e+000 6.422297e+000 -1.600000e+001
         vertex 4.770126e+000 6.422297e+000 -1.490000e+002
      endloop
   endfacet
   facet normal 3.917790e-001 9.200594e-001 0.000000e+000
      outer loop
         vertex 1.324175e+000 7.889649e+000 -1.490000e+002
         vertex 1.324175e+000 7.889649e+000 -1.600000e+001
         vertex 4.770126e+000 6.422297e+000 -1.600000e+001
      endloop
   endfacet
   facet normal -6.993280e-002 9.975517e-001 0.000000e+000
      outer loop
         vertex -2.412012e+000 7.627726e+000 -1.490000e+002
         vertex 1.324175e+000 7.889649e+000 -1.600000e+001
         vertex 1.324175e+000 7.889649e+000 -1.490000e+002
      endloop
   endfacet
   facet normal -6.993280e-002 9.975517e-001 0.000000e+000
      outer loop
         vertex -2.412012e+000 7.627726e+000 -1.490000e+002
         vertex -2.412012e+000 7.627726e+000 -1.600000e+001
         vertex 1.324175e+000 7.889649e+000 -1.600000e+001
      endloop
   endfacet
   facet normal -5.163165e-001 8.563978e-001 0.000000e+000
      outer loop
         vertex -5.619528e+000 5.693936e+000 -1.490000e+002
         vertex -2.412012e+000 7.627726e+000 -1.600000e+001
         vertex -2.412012e+000 7.627726e+000 -1.490000e+002
      endloop
   endfacet
   facet normal -5.163165e-001 8.563978e-001 0.000000e+000
      outer loop
         vertex -5.619528e+000 5.693936e+000 -1.490000e+002
         vertex -5.619528e+000 5.693936e+000 -1.600000e+001
         vertex -2.412012e+000 7.627726e+000 -1.600000e+001
      endloop
   endfacet
   facet normal -8.495325e-001 5.275363e-001 0.000000e+000
      outer loop
         vertex -7.595340e+000 2.512133e+000 -1.490000e+002
         vertex -5.619528e+000 5.693936e+000 -1.600000e+001
         vertex -5.619528e+000 5.693936e+000 -1.490000e+002
      endloop
   endfacet
   facet normal -8.495325e-001 5.275363e-001 0.000000e+000
      outer loop
         vertex -7.595340e+000 2.512133e+000 -1.490000e+002
         vertex -7.595340e+000 2.512133e+000 -1.600000e+001
         vertex -5.619528e+000 5.693936e+000 -1.600000e+001
      endloop
   endfacet
   facet normal -9.965456e-001 8.304782e-002 0.000000e+000
      outer loop
         vertex -7.906384e+000 -1.220286e+000 -1.490000e+002
         vertex -7.595340e+000 2.512133e+000 -1.600000e+001
         vertex -7.595340e+000 2.512133e+000 -1.490000e+002
      endloop
   endfacet
   facet normal -9.965456e-001 8.304782e-002 0.000000e+000
      outer loop
         vertex -7.906384e+000 -1.220286e+000 -1.490000e+002
         vertex -7.906384e+000 -1.220286e+000 -1.600000e+001
         vertex -7.595340e+000 2.512133e+000 -1.600000e+001
      endloop
   endfacet
   facet normal -9.251330e-001 -3.796432e-001 -0.000000e+000
      outer loop
         vertex -6.484484e+000 -4.685239e+000 -1.490000e+002
         vertex -7.906384e+000 -1.220286e+000 -1.600000e+001
         vertex -7.906384e+000 -1.220286e+000 -1.490000e+002
      endloop
   endfacet
   facet normal -9.251330e-001 -3.796432e-001 -0.000000e+000
      outer loop
         vertex -6.484484e+000 -4.685239e+000 -1.490000e+002
         vertex -6.484484e+000 -4.685239e+000 -1.600000e+001
         vertex -7.906384e+000 -1.220286e+000 -1.600000e+001
      endloop
   endfacet
   facet normal -6.509471e-001 -7.591231e-001 -0.000000e+000
      outer loop
         vertex -3.641297e+000 -7.123269e+000 -1.490000e+002
         vertex -6.484484e+000 -4.685239e+000 -1.600000e+001
         vertex -6.484484e+000 -4.685239e+000 -1.490000e+002
      endloop
   endfacet
   facet normal -6.509471e-001 -7.591231e-001 -0.000000e+000
      outer loop
         vertex -3.641297e+000 -7.123269e+000 -1.490000e+002
         vertex -3.641297e+000 -7.123269e+000 -1.600000e+001
         vertex -6.484484e+000 -4.685239e+000 -1.600000e+001
      endloop
   endfacet
   facet normal -2.340849e-001 -9.722162e-001 -0.000000e+000
      outer loop
         vertex 0.000000e+000 -8.000000e+000 -1.490000e+002
         vertex -3.641297e+000 -7.123269e+000 -1.600000e+001
         vertex -3.641297e+000 -7.123269e+000 -1.490000e+002
      endloop
   endfacet
   facet normal -2.340849e-001 -9.722162e-001 -0.000000e+000
      outer loop
         vertex 0.000000e+000 -8.000000e+000 -1.490000e+002
         vertex 0.000000e+000 -8.000000e+000 -1.600000e+001
         vertex -3.641297e+000 -7.123269e+000 -1.600000e+001
      endloop
   endfacet
   facet normal 0.000000e+000 0.000000e+000 -1.000000e+000
      outer loop
         vertex 2.074696e+000 -4.549246e+000 -1.300000e+002
         vertex 0.000000e+000 -5.000000e+000 -1.300000e+002
         vertex 4.243195e+000 -2.644863e+000 -1.300000e+002
      endloop
   endfacet
   facet normal 0.000000e+000 0.000000e+000 -1.000000e+000
      outer loop
         vertex 4.243195e+000 -2.644863e+000 -1.300000e+002
         vertex 0.000000e+000 -5.000000e+000 -1.300000e+002
         vertex 4.998020e+000 1.406889e-001 -1.300000e+002
      endloop
   endfacet
   facet normal 0.000000e+000 0.000000e+000 -1.000000e+000
      outer loop
         vertex 4.998020e+000 1.406889e-001 -1.300000e+002
         vertex 0.000000e+000 -5.000000e+000 -1.300000e+002
         vertex -2.763210e+000 -4.167094e+000 -1.300000e+002
      endloop
   endfacet
   facet normal 0.000000e+000 0.000000e+000 -1.000000e+000
      outer loop
         vertex 4.998020e+000 1.406889e-001 -1.300000e+002
         vertex -2.763210e+000 -4.167094e+000 -1.300000e+002
         vertex 4.087693e+000 2.879369e+000 -1.300000e+002
      endloop
   endfacet
   facet normal 0.000000e+000 0.000000e+000 -1.000000e+000
      outer loop
         vertex 4.087693e+000 2.879369e+000 -1.300000e+002
         vertex -2.763210e+000 -4.167094e+000 -1.300000e+002
         vertex -4.605822e+000 -1.945869e+000 -1.300000e+002
      endloop
   endfacet
   facet normal 0.000000e+000 0.000000e+000 -1.000000e+000
      outer loop
         vertex 4.087693e+000 2.879369e+000 -1.300000e+002
         vertex -4.605822e+000 -1.945869e+000 -1.300000e+002
         vertex 1.815501e+000 4.658751e+000 -1.300000e+002
      endloop
   endfacet
   facet normal 0.000000e+000 0.000000e+000 -1.000000e+000
      outer loop
         vertex 1.815501e+000 4.658751e+000 -1.300000e+002
         vertex -4.605822e+000 -1.945869e+000 -1.300000e+002
         vertex -4.913947e+000 9.236468e-001 -1.300000e+002
      endloop
   endfacet
   facet normal 0.000000e+000 0.000000e+000 -1.000000e+000
      outer loop
         vertex 1.815501e+000 4.658751e+000 -1.300000e+002
         vertex -4.913947e+000 9.236468e-001 -1.300000e+002
         vertex -1.061549e+000 4.886012e+000 -1.300000e+002
      endloop
   endfacet
   facet normal 0.000000e+000 0.000000e+000 -1.000000e+000
      outer loop
         vertex -1.061549e+000 4.886012e+000 -1.300000e+002
         vertex -4.913947e+000 9.236468e-001 -1.300000e+002
         vertex -3.584930e+000 3.485438e+000 -1.300000e+002
      endloop
   endfacet
   facet normal 7.387094e-017 6.127947e-017 1.000000e+000
      outer loop
         vertex -2.763210e+000 -4.167094e+000 0.000000e+000
         vertex 0.000000e+000 -5.000000e+000 -1.530808e-016
         vertex -4.605822e+000 -1.945869e+000 0.000000e+000
      endloop
   endfacet
   facet normal 3.578434e-017 3.842478e-018 1.000000e+000
      outer loop
         vertex -4.605822e+000 -1.945869e+000 0.000000e+000
         vertex 0.000000e+000 -5.000000e+000 -1.530808e-016
         vertex -4.913947e+000 9.236468e-001 0.000000e+000
      endloop
   endfacet
   facet normal -5.776006e-017 -7.375705e-017 1.000000e+000
      outer loop
         vertex -4.913947e+000 9.236468e-001 0.000000e+000
         vertex 0.000000e+000 -5.000000e+000 -1.530808e-016
         vertex 2.074696e+000 -4.549246e+000 0.000000e+000
      endloop
   endfacet
   facet normal 0.000000e+000 0.000000e+000 1.000000e+000
      outer loop
         vertex -4.913947e+000 9.236468e-001 0.000000e+000
         vertex 2.074696e+000 -4.549246e+000 0.000000e+000
         vertex -3.584930e+000 3.485438e+000 0.000000e+000
      endloop
   endfacet
   facet normal 0.000000e+000 -0.000000e+000 1.000000e+000
      outer loop
         vertex -3.584930e+000 3.485438e+000 0.000000e+000
         vertex 2.074696e+000 -4.549246e+000 0.000000e+000
         vertex 4.243195e+000 -2.644863e+000 0.000000e+000
      endloop
   endfacet
   facet normal 0.000000e+000 0.000000e+000 1.000000e+000
      outer loop
         vertex -3.584930e+000 3.485438e+000 0.000000e+000
         vertex 4.243195e+000 -2.644863e+000 0.000000e+000
         vertex -1.061549e+000 4.886012e+000 0.000000e+000
      endloop
   endfacet
   facet normal 0.000000e+000 -0.000000e+000 1.000000e+000
      outer loop
         vertex -1.061549e+000 4.886012e+000 0.000000e+000
         vertex 4.243195e+000 -2.644863e+000 0.000000e+000
         vertex 4.998020e+000 1.406889e-001 0.000000e+000
      endloop
   endfacet
   facet normal 0.000000e+000 0.000000e+000 1.000000e+000
      outer loop
         vertex -1.061549e+000 4.886012e+000 0.000000e+000
         vertex 4.998020e+000 1.406889e-001 0.000000e+000
         vertex 1.815501e+000 4.658751e+000 0.000000e+000
      endloop
   endfacet
   facet normal 0.000000e+000 0.000000e+000 1.000000e+000
      outer loop
         vertex 1.815501e+000 4.658751e+000 0.000000e+000
         vertex 4.998020e+000 1.406889e-001 0.000000e+000
         vertex 4.087693e+000 2.879369e+000 0.000000e+000
      endloop
   endfacet
   facet normal 4.503559e-002 -6.424079e-001 -7.650385e-001
      outer loop
         vertex 2.162851e+000 -6.657483e+000 -1.500000e+002
         vertex 1.116185e+000 -7.921751e+000 -1.490000e+002
         vertex 0.000000e+000 -8.000000e+000 -1.490000e+002
      endloop
   endfacet
   facet normal 1.112846e-001 -7.027146e-001 -7.027146e-001
      outer loop
         vertex 2.162851e+000 -6.657483e+000 -1.500000e+002
         vertex 0.000000e+000 -8.000000e+000 -1.490000e+002
         vertex 0.000000e+000 -7.000000e+000 -1.500000e+002
      endloop
   endfacet
   facet normal 2.881512e-001 -7.293508e-001 -6.204968e-001
      outer loop
         vertex 2.162851e+000 -6.657483e+000 -1.500000e+002
         vertex 4.599542e+000 -6.545549e+000 -1.490000e+002
         vertex 1.116185e+000 -7.921751e+000 -1.490000e+002
      endloop
   endfacet
   facet normal 3.406673e-001 -5.399713e-001 -7.696602e-001
      outer loop
         vertex 5.077443e+000 -4.818669e+000 -1.500000e+002
         vertex 4.599542e+000 -6.545549e+000 -1.490000e+002
         vertex 2.162851e+000 -6.657483e+000 -1.500000e+002
      endloop
   endfacet
   facet normal 5.910240e-001 -5.204476e-001 -6.162993e-001
      outer loop
         vertex 5.077443e+000 -4.818669e+000 -1.500000e+002
         vertex 7.074758e+000 -3.734676e+000 -1.490000e+002
         vertex 4.599542e+000 -6.545549e+000 -1.490000e+002
      endloop
   endfacet
   facet normal 5.550132e-001 -3.108480e-001 -7.715788e-001
      outer loop
         vertex 6.761420e+000 -1.811960e+000 -1.500000e+002
         vertex 7.074758e+000 -3.734676e+000 -1.490000e+002
         vertex 5.077443e+000 -4.818669e+000 -1.500000e+002
      endloop
   endfacet
   facet normal 7.647426e-001 -1.948072e-001 -6.141815e-001
      outer loop
         vertex 6.761420e+000 -1.811960e+000 -1.500000e+002
         vertex 7.999308e+000 -1.052263e-001 -1.490000e+002
         vertex 7.074758e+000 -3.734676e+000 -1.490000e+002
      endloop
   endfacet
   facet normal 6.353093e-001 -8.336847e-003 -7.722128e-001
      outer loop
         vertex 6.806639e+000 1.633912e+000 -1.500000e+002
         vertex 7.999308e+000 -1.052263e-001 -1.490000e+002
         vertex 6.761420e+000 -1.811960e+000 -1.500000e+002
      endloop
   endfacet
   facet normal 7.696001e-001 1.746234e-001 -6.141843e-001
      outer loop
         vertex 6.806639e+000 1.633912e+000 -1.500000e+002
         vertex 7.170547e+000 3.547287e+000 -1.490000e+002
         vertex 7.999308e+000 -1.052263e-001 -1.490000e+002
      endloop
   endfacet
   facet normal 5.629824e-001 2.961789e-001 -7.715756e-001
      outer loop
         vertex 5.202139e+000 4.683775e+000 -1.500000e+002
         vertex 7.170547e+000 3.547287e+000 -1.490000e+002
         vertex 6.806639e+000 1.633912e+000 -1.500000e+002
      endloop
   endfacet
   facet normal 6.045047e-001 5.047170e-001 -6.163074e-001
      outer loop
         vertex 5.202139e+000 4.683775e+000 -1.500000e+002
         vertex 4.770126e+000 6.422297e+000 -1.490000e+002
         vertex 7.170547e+000 3.547287e+000 -1.490000e+002
      endloop
   endfacet
   facet normal 3.547236e-001 5.308527e-001 -7.696536e-001
      outer loop
         vertex 2.336803e+000 6.598435e+000 -1.500000e+002
         vertex 4.770126e+000 6.422297e+000 -1.490000e+002
         vertex 5.202139e+000 4.683775e+000 -1.500000e+002
      endloop
   endfacet
   facet normal 3.072325e-001 7.215091e-001 -6.205102e-001
      outer loop
         vertex 2.336803e+000 6.598435e+000 -1.500000e+002
         vertex 1.324175e+000 7.889649e+000 -1.490000e+002
         vertex 4.770126e+000 6.422297e+000 -1.490000e+002
      endloop
   endfacet
   facet normal 5.879065e-002 6.396608e-001 -7.664057e-001
      outer loop
         vertex -1.094902e+000 6.913840e+000 -1.500000e+002
         vertex 1.324175e+000 7.889649e+000 -1.490000e+002
         vertex 2.336803e+000 6.598435e+000 -1.500000e+002
      endloop
   endfacet
   facet normal -5.449527e-002 7.773441e-001 -6.267108e-001
      outer loop
         vertex -1.094902e+000 6.913840e+000 -1.500000e+002
         vertex -2.412012e+000 7.627726e+000 -1.490000e+002
         vertex 1.324175e+000 7.889649e+000 -1.490000e+002
      endloop
   endfacet
   facet normal -2.557269e-001 5.952509e-001 -7.617612e-001
      outer loop
         vertex -4.261237e+000 5.553545e+000 -1.500000e+002
         vertex -2.412012e+000 7.627726e+000 -1.490000e+002
         vertex -1.094902e+000 6.913840e+000 -1.500000e+002
      endloop
   endfacet
   facet normal -3.989498e-001 6.617255e-001 -6.347901e-001
      outer loop
         vertex -4.261237e+000 5.553545e+000 -1.500000e+002
         vertex -5.619528e+000 5.693936e+000 -1.490000e+002
         vertex -2.412012e+000 7.627726e+000 -1.490000e+002
      endloop
   endfacet
   facet normal -5.143864e-001 4.055221e-001 -7.556179e-001
      outer loop
         vertex -6.394780e+000 2.847242e+000 -1.500000e+002
         vertex -5.619528e+000 5.693936e+000 -1.490000e+002
         vertex -4.261237e+000 5.553545e+000 -1.500000e+002
      endloop
   endfacet
   facet normal -6.494882e-001 4.033143e-001 -6.445950e-001
      outer loop
         vertex -6.394780e+000 2.847242e+000 -1.500000e+002
         vertex -7.595340e+000 2.512133e+000 -1.490000e+002
         vertex -5.619528e+000 5.693936e+000 -1.490000e+002
      endloop
   endfacet
   facet normal -6.542914e-001 1.124357e-001 -7.478376e-001
      outer loop
         vertex -6.978427e+000 -5.491435e-001 -1.500000e+002
         vertex -7.595340e+000 2.512133e+000 -1.490000e+002
         vertex -6.394780e+000 2.847242e+000 -1.500000e+002
      endloop
   endfacet
   facet normal -7.522040e-001 6.268545e-002 -6.559418e-001
      outer loop
         vertex -6.978427e+000 -5.491435e-001 -1.500000e+002
         vertex -7.906384e+000 -1.220286e+000 -1.490000e+002
         vertex -7.595340e+000 2.512133e+000 -1.490000e+002
      endloop
   endfacet
   facet normal -6.387419e-001 -2.168177e-001 -7.382404e-001
      outer loop
         vertex -5.870719e+000 -3.812434e+000 -1.500000e+002
         vertex -7.906384e+000 -1.220286e+000 -1.490000e+002
         vertex -6.978427e+000 -5.491435e-001 -1.500000e+002
      endloop
   endfacet
   facet normal -6.879302e-001 -2.823032e-001 -6.686231e-001
      outer loop
         vertex -5.870719e+000 -3.812434e+000 -1.500000e+002
         vertex -6.484484e+000 -4.685239e+000 -1.490000e+002
         vertex -7.906384e+000 -1.220286e+000 -1.490000e+002
      endloop
   endfacet
   facet normal -4.663809e-001 -5.045230e-001 -7.265985e-001
      outer loop
         vertex -3.340132e+000 -6.151709e+000 -1.500000e+002
         vertex -6.484484e+000 -4.685239e+000 -1.490000e+002
         vertex -5.870719e+000 -3.812434e+000 -1.500000e+002
      endloop
   endfacet
   facet normal -4.758207e-001 -5.548938e-001 -6.824131e-001
      outer loop
         vertex -3.340132e+000 -6.151709e+000 -1.500000e+002
         vertex -3.641297e+000 -7.123269e+000 -1.490000e+002
         vertex -6.484484e+000 -4.685239e+000 -1.490000e+002
      endloop
   endfacet
   facet normal -1.726883e-001 -6.799572e-001 -7.126268e-001
      outer loop
         vertex 0.000000e+000 -7.000000e+000 -1.500000e+002
         vertex -3.641297e+000 -7.123269e+000 -1.490000e+002
         vertex -3.340132e+000 -6.151709e+000 -1.500000e+002
      endloop
   endfacet
   facet normal -1.678382e-001 -6.970762e-001 -6.970762e-001
      outer loop
         vertex 0.000000e+000 -7.000000e+000 -1.500000e+002
         vertex 0.000000e+000 -8.000000e+000 -1.490000e+002
         vertex -3.641297e+000 -7.123269e+000 -1.490000e+002
      endloop
   endfacet
   facet normal 1.060052e-001 -6.693776e-001 7.353207e-001
      outer loop
         vertex 1.116185e+000 -7.921751e+000 -1.600000e+001
         vertex 2.162851e+000 -6.657483e+000 -1.500000e+001
         vertex 0.000000e+000 -7.000000e+000 -1.500000e+001
      endloop
   endfacet
   facet normal 4.951047e-002 -7.062396e-001 7.062396e-001
      outer loop
         vertex 0.000000e+000 -7.000000e+000 -1.500000e+001
         vertex 0.000000e+000 -8.000000e+000 -1.600000e+001
         vertex 1.116185e+000 -7.921751e+000 -1.600000e+001
      endloop
   endfacet
   facet normal 2.881512e-001 -7.293508e-001 6.204968e-001
      outer loop
         vertex 4.599542e+000 -6.545549e+000 -1.600000e+001
         vertex 2.162851e+000 -6.657483e+000 -1.500000e+001
         vertex 1.116185e+000 -7.921751e+000 -1.600000e+001
      endloop
   endfacet
   facet normal 3.406673e-001 -5.399713e-001 7.696602e-001
      outer loop
         vertex 4.599542e+000 -6.545549e+000 -1.600000e+001
         vertex 5.077443e+000 -4.818669e+000 -1.500000e+001
         vertex 2.162851e+000 -6.657483e+000 -1.500000e+001
      endloop
   endfacet
   facet normal 5.910240e-001 -5.204476e-001 6.162993e-001
      outer loop
         vertex 7.074758e+000 -3.734676e+000 -1.600000e+001
         vertex 5.077443e+000 -4.818669e+000 -1.500000e+001
         vertex 4.599542e+000 -6.545549e+000 -1.600000e+001
      endloop
   endfacet
   facet normal 5.550132e-001 -3.108480e-001 7.715788e-001
      outer loop
         vertex 7.074758e+000 -3.734676e+000 -1.600000e+001
         vertex 6.761420e+000 -1.811960e+000 -1.500000e+001
         vertex 5.077443e+000 -4.818669e+000 -1.500000e+001
      endloop
   endfacet
   facet normal 7.647426e-001 -1.948072e-001 6.141815e-001
      outer loop
         vertex 7.999308e+000 -1.052263e-001 -1.600000e+001
         vertex 6.761420e+000 -1.811960e+000 -1.500000e+001
         vertex 7.074758e+000 -3.734676e+000 -1.600000e+001
      endloop
   endfacet
   facet normal 6.353093e-001 -8.336847e-003 7.722128e-001
      outer loop
         vertex 7.999308e+000 -1.052263e-001 -1.600000e+001
         vertex 6.806639e+000 1.633912e+000 -1.500000e+001
         vertex 6.761420e+000 -1.811960e+000 -1.500000e+001
      endloop
   endfacet
   facet normal 7.696001e-001 1.746234e-001 6.141843e-001
      outer loop
         vertex 7.170547e+000 3.547287e+000 -1.600000e+001
         vertex 6.806639e+000 1.633912e+000 -1.500000e+001
         vertex 7.999308e+000 -1.052263e-001 -1.600000e+001
      endloop
   endfacet
   facet normal 5.629824e-001 2.961789e-001 7.715756e-001
      outer loop
         vertex 7.170547e+000 3.547287e+000 -1.600000e+001
         vertex 5.202139e+000 4.683775e+000 -1.500000e+001
         vertex 6.806639e+000 1.633912e+000 -1.500000e+001
      endloop
   endfacet
   facet normal 6.045047e-001 5.047170e-001 6.163074e-001
      outer loop
         vertex 4.770126e+000 6.422297e+000 -1.600000e+001
         vertex 5.202139e+000 4.683775e+000 -1.500000e+001
         vertex 7.170547e+000 3.547287e+000 -1.600000e+001
      endloop
   endfacet
   facet normal 3.547236e-001 5.308527e-001 7.696536e-001
      outer loop
         vertex 4.770126e+000 6.422297e+000 -1.600000e+001
         vertex 2.336803e+000 6.598435e+000 -1.500000e+001
         vertex 5.202139e+000 4.683775e+000 -1.500000e+001
      endloop
   endfacet
   facet normal 3.072325e-001 7.215091e-001 6.205102e-001
      outer loop
         vertex 1.324175e+000 7.889649e+000 -1.600000e+001
         vertex 2.336803e+000 6.598435e+000 -1.500000e+001
         vertex 4.770126e+000 6.422297e+000 -1.600000e+001
      endloop
   endfacet
   facet normal 5.879065e-002 6.396608e-001 7.664057e-001
      outer loop
         vertex 1.324175e+000 7.889649e+000 -1.600000e+001
         vertex -1.094902e+000 6.913840e+000 -1.500000e+001
         vertex 2.336803e+000 6.598435e+000 -1.500000e+001
      endloop
   endfacet
   facet normal -5.449527e-002 7.773441e-001 6.267108e-001
      outer loop
         vertex -2.412012e+000 7.627726e+000 -1.600000e+001
         vertex -1.094902e+000 6.913840e+000 -1.500000e+001
         vertex 1.324175e+000 7.889649e+000 -1.600000e+001
      endloop
   endfacet
   facet normal -2.557269e-001 5.952509e-001 7.617612e-001
      outer loop
         vertex -2.412012e+000 7.627726e+000 -1.600000e+001
         vertex -4.261237e+000 5.553545e+000 -1.500000e+001
         vertex -1.094902e+000 6.913840e+000 -1.500000e+001
      endloop
   endfacet
   facet normal -3.989498e-001 6.617255e-001 6.347901e-001
      outer loop
         vertex -5.619528e+000 5.693936e+000 -1.600000e+001
         vertex -4.261237e+000 5.553545e+000 -1.500000e+001
         vertex -2.412012e+000 7.627726e+000 -1.600000e+001
      endloop
   endfacet
   facet normal -5.143864e-001 4.055221e-001 7.556179e-001
      outer loop
         vertex -5.619528e+000 5.693936e+000 -1.600000e+001
         vertex -6.394780e+000 2.847242e+000 -1.500000e+001
         vertex -4.261237e+000 5.553545e+000 -1.500000e+001
      endloop
   endfacet
   facet normal -6.494882e-001 4.033143e-001 6.445950e-001
      outer loop
         vertex -7.595340e+000 2.512133e+000 -1.600000e+001
         vertex -6.394780e+000 2.847242e+000 -1.500000e+001
         vertex -5.619528e+000 5.693936e+000 -1.600000e+001
      endloop
   endfacet
   facet normal -6.542914e-001 1.124357e-001 7.478376e-001
      outer loop
         vertex -7.595340e+000 2.512133e+000 -1.600000e+001
         vertex -6.978427e+000 -5.491435e-001 -1.500000e+001
         vertex -6.394780e+000 2.847242e+000 -1.500000e+001
      endloop
   endfacet
   facet normal -7.522040e-001 6.268545e-002 6.559418e-001
      outer loop
         vertex -7.906384e+000 -1.220286e+000 -1.600000e+001
         vertex -6.978427e+000 -5.491435e-001 -1.500000e+001
         vertex -7.595340e+000 2.512133e+000 -1.600000e+001
      endloop
   endfacet
   facet normal -6.387419e-001 -2.168177e-001 7.382404e-001
      outer loop
         vertex -7.906384e+000 -1.220286e+000 -1.600000e+001
         vertex -5.870719e+000 -3.812434e+000 -1.500000e+001
         vertex -6.978427e+000 -5.491435e-001 -1.500000e+001
      endloop
   endfacet
   facet normal -6.879302e-001 -2.823032e-001 6.686231e-001
      outer loop
         vertex -6.484484e+000 -4.685239e+000 -1.600000e+001
         vertex -5.870719e+000 -3.812434e+000 -1.500000e+001
         vertex -7.906384e+000 -1.220286e+000 -1.600000e+001
      endloop
   endfacet
   facet normal -4.663809e-001 -5.045230e-001 7.265985e-001
      outer loop
         vertex -6.484484e+000 -4.685239e+000 -1.600000e+001
         vertex -3.340132e+000 -6.151709e+000 -1.500000e+001
         vertex -5.870719e+000 -3.812434e+000 -1.500000e+001
      endloop
   endfacet
   facet normal -4.758207e-001 -5.548938e-001 6.824131e-001
      outer loop
         vertex -3.641297e+000 -7.123269e+000 -1.600000e+001
         vertex -3.340132e+000 -6.151709e+000 -1.500000e+001
         vertex -6.484484e+000 -4.685239e+000 -1.600000e+001
      endloop
   endfacet
   facet normal -1.642810e-001 -6.823022e-001 7.123732e-001
      outer loop
         vertex -3.340132e+000 -6.151709e+000 -1.500000e+001
         vertex -3.641297e+000 -7.123269e+000 -1.600000e+001
         vertex 0.000000e+000 -8.000000e+000 -1.600000e+001
      endloop
   endfacet
   facet normal -1.767559e-001 -6.959732e-001 6.959732e-001
      outer loop
         vertex -3.340132e+000 -6.151709e+000 -1.500000e+001
         vertex 0.000000e+000 -8.000000e+000 -1.600000e+001
         vertex 0.000000e+000 -7.000000e+000 -1.500000e+001
      endloop
   endfacet
   facet normal -1.885871e-001 -6.739932e-001 7.142605e-001
      outer loop
         vertex -2.763210e+000 -4.167094e+000 0.000000e+000
         vertex -3.113879e+000 -5.128719e+000 -1.000000e+000
         vertex 0.000000e+000 -6.000000e+000 -1.000000e+000
      endloop
   endfacet
   facet normal -2.084587e-001 -6.915725e-001 6.915725e-001
      outer loop
         vertex -2.763210e+000 -4.167094e+000 0.000000e+000
         vertex 0.000000e+000 -6.000000e+000 -1.000000e+000
         vertex 0.000000e+000 -5.000000e+000 -1.530808e-016
      endloop
   endfacet
   facet normal -5.391530e-001 -5.046050e-001 6.743054e-001
      outer loop
         vertex -2.763210e+000 -4.167094e+000 0.000000e+000
         vertex -5.323404e+000 -2.767918e+000 -1.000000e+000
         vertex -3.113879e+000 -5.128719e+000 -1.000000e+000
      endloop
   endfacet
   facet normal -5.236549e-001 -4.343967e-001 7.328609e-001
      outer loop
         vertex -4.605822e+000 -1.945869e+000 0.000000e+000
         vertex -5.323404e+000 -2.767918e+000 -1.000000e+000
         vertex -2.763210e+000 -4.167094e+000 0.000000e+000
      endloop
   endfacet
   facet normal -7.380301e-001 -1.547254e-001 6.567889e-001
      outer loop
         vertex -4.605822e+000 -1.945869e+000 0.000000e+000
         vertex -5.986867e+000 3.967604e-001 -1.000000e+000
         vertex -5.323404e+000 -2.767918e+000 -1.000000e+000
      endloop
   endfacet
   facet normal -6.612095e-001 -7.099986e-002 7.468340e-001
      outer loop
         vertex -4.913947e+000 9.236468e-001 0.000000e+000
         vertex -5.986867e+000 3.967604e-001 -1.000000e+000
         vertex -4.605822e+000 -1.945869e+000 0.000000e+000
      endloop
   endfacet
   facet normal -7.233208e-001 2.550546e-001 6.416808e-001
      outer loop
         vertex -4.913947e+000 9.236468e-001 0.000000e+000
         vertex -4.911582e+000 3.446209e+000 -1.000000e+000
         vertex -5.986867e+000 3.967604e-001 -1.000000e+000
      endloop
   endfacet
   facet normal -5.797164e-001 3.007478e-001 7.572843e-001
      outer loop
         vertex -3.584930e+000 3.485438e+000 0.000000e+000
         vertex -4.911582e+000 3.446209e+000 -1.000000e+000
         vertex -4.913947e+000 9.236468e-001 0.000000e+000
      endloop
   endfacet
   facet normal -4.922738e-001 6.011696e-001 6.294931e-001
      outer loop
         vertex -3.584930e+000 3.485438e+000 0.000000e+000
         vertex -2.409841e+000 5.494785e+000 -1.000000e+000
         vertex -4.911582e+000 3.446209e+000 -1.000000e+000
      endloop
   endfacet
   facet normal -3.127357e-001 5.634484e-001 7.646714e-001
      outer loop
         vertex -1.061549e+000 4.886012e+000 0.000000e+000
         vertex -2.409841e+000 5.494785e+000 -1.000000e+000
         vertex -3.584930e+000 3.485438e+000 0.000000e+000
      endloop
   endfacet
   facet normal -1.097854e-001 7.763626e-001 6.206515e-001
      outer loop
         vertex -1.061549e+000 4.886012e+000 0.000000e+000
         vertex 7.917840e-001 5.947527e+000 -1.000000e+000
         vertex -2.409841e+000 5.494785e+000 -1.000000e+000
      endloop
   endfacet
   facet normal 5.030887e-002 6.368922e-001 7.693096e-001
      outer loop
         vertex 1.815501e+000 4.658751e+000 0.000000e+000
         vertex 7.917840e-001 5.947527e+000 -1.000000e+000
         vertex -1.061549e+000 4.886012e+000 0.000000e+000
      endloop
   endfacet
   facet normal 3.106792e-001 7.243443e-001 6.154704e-001
      outer loop
         vertex 1.815501e+000 4.658751e+000 0.000000e+000
         vertex 3.763453e+000 4.672945e+000 -1.000000e+000
         vertex 7.917840e-001 5.947527e+000 -1.000000e+000
      endloop
   endfacet
   facet normal 3.923505e-001 5.010143e-001 7.713921e-001
      outer loop
         vertex 4.087693e+000 2.879369e+000 0.000000e+000
         vertex 3.763453e+000 4.672945e+000 -1.000000e+000
         vertex 1.815501e+000 4.658751e+000 0.000000e+000
      endloop
   endfacet
   facet normal 6.423313e-001 4.585279e-001 6.141357e-001
      outer loop
         vertex 4.087693e+000 2.879369e+000 0.000000e+000
         vertex 5.642114e+000 2.041214e+000 -1.000000e+000
         vertex 3.763453e+000 4.672945e+000 -1.000000e+000
      endloop
   endfacet
   facet normal 6.043199e-001 2.008737e-001 7.710040e-001
      outer loop
         vertex 4.998020e+000 1.406889e-001 0.000000e+000
         vertex 5.642114e+000 2.041214e+000 -1.000000e+000
         vertex 4.087693e+000 2.879369e+000 0.000000e+000
      endloop
   endfacet
   facet normal 7.850298e-001 5.843799e-002 6.166954e-001
      outer loop
         vertex 4.998020e+000 1.406889e-001 0.000000e+000
         vertex 5.882151e+000 -1.183342e+000 -1.000000e+000
         vertex 5.642114e+000 2.041214e+000 -1.000000e+000
      endloop
   endfacet
   facet normal 6.180064e-001 -1.674667e-001 7.681295e-001
      outer loop
         vertex 4.243195e+000 -2.644863e+000 0.000000e+000
         vertex 5.882151e+000 -1.183342e+000 -1.000000e+000
         vertex 4.998020e+000 1.406889e-001 0.000000e+000
      endloop
   endfacet
   facet normal 6.968832e-001 -3.551804e-001 6.230575e-001
      outer loop
         vertex 4.243195e+000 -2.644863e+000 0.000000e+000
         vertex 4.413853e+000 -4.064222e+000 -1.000000e+000
         vertex 5.882151e+000 -1.183342e+000 -1.000000e+000
      endloop
   endfacet
   facet normal 4.268090e-001 -4.860024e-001 7.626505e-001
      outer loop
         vertex 2.074696e+000 -4.549246e+000 0.000000e+000
         vertex 4.413853e+000 -4.064222e+000 -1.000000e+000
         vertex 4.243195e+000 -2.644863e+000 0.000000e+000
      endloop
   endfacet
   facet normal 4.071374e-001 -6.584510e-001 6.329941e-001
      outer loop
         vertex 2.074696e+000 -4.549246e+000 0.000000e+000
         vertex 1.663652e+000 -5.764743e+000 -1.000000e+000
         vertex 4.413853e+000 -4.064222e+000 -1.000000e+000
      endloop
   endfacet
   facet normal 1.427781e-001 -6.571679e-001 7.400978e-001
      outer loop
         vertex 0.000000e+000 -5.000000e+000 -1.530808e-016
         vertex 1.663652e+000 -5.764743e+000 -1.000000e+000
         vertex 2.074696e+000 -4.549246e+000 0.000000e+000
      endloop
   endfacet
   facet normal 9.949568e-002 -7.035981e-001 7.035981e-001
      outer loop
         vertex 0.000000e+000 -5.000000e+000 -1.530808e-016
         vertex 0.000000e+000 -6.000000e+000 -1.000000e+000
         vertex 1.663652e+000 -5.764743e+000 -1.000000e+000
      endloop
   endfacet
   facet normal -7.098123e-002 9.974588e-001 -6.135304e-003
      outer loop
         vertex 1.663652e+000 -5.764743e+000 -1.310000e+002
         vertex 8.496447e-001 -5.939538e+000 -1.500000e+002
         vertex 0.000000e+000 -6.000000e+000 -1.500000e+002
      endloop
   endfacet
   facet normal -1.400168e-001 9.901491e-001 0.000000e+000
      outer loop
         vertex 1.663652e+000 -5.764743e+000 -1.310000e+002
         vertex 0.000000e+000 -6.000000e+000 -1.500000e+002
         vertex 0.000000e+000 -6.000000e+000 -1.310000e+002
      endloop
   endfacet
   facet normal -4.088626e-001 9.125503e-001 9.121503e-003
      outer loop
         vertex 1.663652e+000 -5.764743e+000 -1.310000e+002
         vertex 3.866989e+000 -4.587635e+000 -1.500000e+002
         vertex 8.496447e-001 -5.939538e+000 -1.500000e+002
      endloop
   endfacet
   facet normal -5.258928e-001 8.505104e-001 -8.293478e-003
      outer loop
         vertex 4.413853e+000 -4.064222e+000 -1.310000e+002
         vertex 3.866989e+000 -4.587635e+000 -1.500000e+002
         vertex 1.663652e+000 -5.764743e+000 -1.310000e+002
      endloop
   endfacet
   facet normal -8.301928e-001 5.574110e-001 8.539278e-003
      outer loop
         vertex 4.413853e+000 -4.064222e+000 -1.310000e+002
         vertex 5.710057e+000 -1.842619e+000 -1.500000e+002
         vertex 3.866989e+000 -4.587635e+000 -1.500000e+002
      endloop
   endfacet
   facet normal -8.909281e-001 4.540793e-001 -7.686370e-003
      outer loop
         vertex 5.882151e+000 -1.183342e+000 -1.310000e+002
         vertex 5.710057e+000 -1.842619e+000 -1.500000e+002
         vertex 4.413853e+000 -4.064222e+000 -1.310000e+002
      endloop
   endfacet
   facet normal -9.994241e-001 3.299970e-002 7.907305e-003
      outer loop
         vertex 5.882151e+000 -1.183342e+000 -1.310000e+002
         vertex 5.819170e+000 1.461939e+000 -1.500000e+002
         vertex 5.710057e+000 -1.842619e+000 -1.500000e+002
      endloop
   endfacet
   facet normal -9.972161e-001 -7.423324e-002 -7.029552e-003
      outer loop
         vertex 5.642114e+000 2.041214e+000 -1.310000e+002
         vertex 5.819170e+000 1.461939e+000 -1.500000e+002
         vertex 5.882151e+000 -1.183342e+000 -1.310000e+002
      endloop
   endfacet
   facet normal -8.651634e-001 -5.014381e-001 7.225695e-003
      outer loop
         vertex 5.642114e+000 2.041214e+000 -1.310000e+002
         vertex 4.161192e+000 4.322555e+000 -1.500000e+002
         vertex 5.819170e+000 1.461939e+000 -1.500000e+002
      endloop
   endfacet
   facet normal -8.138851e-001 -5.809915e-001 -6.323128e-003
      outer loop
         vertex 3.763453e+000 4.672945e+000 -1.310000e+002
         vertex 4.161192e+000 4.322555e+000 -1.500000e+002
         vertex 5.642114e+000 2.041214e+000 -1.310000e+002
      endloop
   endfacet
   facet normal -4.681785e-001 -8.836100e-001 6.494538e-003
      outer loop
         vertex 3.763453e+000 4.672945e+000 -1.310000e+002
         vertex 1.239598e+000 5.870553e+000 -1.500000e+002
         vertex 4.161192e+000 4.322555e+000 -1.500000e+002
      endloop
   endfacet
   facet normal -3.941768e-001 -9.190178e-001 -5.567265e-003
      outer loop
         vertex 7.917840e-001 5.947527e+000 -1.310000e+002
         vertex 1.239598e+000 5.870553e+000 -1.500000e+002
         vertex 3.763453e+000 4.672945e+000 -1.310000e+002
      endloop
   endfacet
   facet normal 7.098160e-002 -9.974613e-001 5.713926e-003
      outer loop
         vertex 7.917840e-001 5.947527e+000 -1.310000e+002
         vertex -2.058421e+000 5.635859e+000 -1.500000e+002
         vertex 1.239598e+000 5.870553e+000 -1.500000e+002
      endloop
   endfacet
   facet normal 1.400154e-001 -9.901379e-001 -4.762010e-003
      outer loop
         vertex -2.409841e+000 5.494785e+000 -1.310000e+002
         vertex -2.058421e+000 5.635859e+000 -1.500000e+002
         vertex 7.917840e-001 5.947527e+000 -1.310000e+002
      endloop
   endfacet
   facet normal 5.885917e-001 -8.084157e-001 4.884042e-003
      outer loop
         vertex -2.409841e+000 5.494785e+000 -1.310000e+002
         vertex -4.731365e+000 3.689740e+000 -1.500000e+002
         vertex -2.058421e+000 5.635859e+000 -1.500000e+002
      endloop
   endfacet
   facet normal 6.335472e-001 -7.736942e-001 -3.907493e-003
      outer loop
         vertex -4.911582e+000 3.446209e+000 -1.310000e+002
         vertex -4.731365e+000 3.689740e+000 -1.500000e+002
         vertex -2.409841e+000 5.494785e+000 -1.310000e+002
      endloop
   endfacet
   facet normal 9.274692e-001 -3.738782e-001 4.005002e-003
      outer loop
         vertex -4.911582e+000 3.446209e+000 -1.310000e+002
         vertex -5.967551e+000 6.231694e-001 -1.500000e+002
         vertex -4.731365e+000 3.689740e+000 -1.500000e+002
      endloop
   endfacet
   facet normal 9.430822e-001 -3.325460e-001 -3.003905e-003
      outer loop
         vertex -5.986867e+000 3.967604e-001 -1.310000e+002
         vertex -5.967551e+000 6.231694e-001 -1.500000e+002
         vertex -4.911582e+000 3.446209e+000 -1.310000e+002
      endloop
   endfacet
   facet normal 9.847059e-001 1.741977e-001 3.076904e-003
      outer loop
         vertex -5.986867e+000 3.967604e-001 -1.310000e+002
         vertex -5.391588e+000 -2.632637e+000 -1.500000e+002
         vertex -5.967551e+000 6.231694e-001 -1.500000e+002
      endloop
   endfacet
   facet normal 9.787210e-001 2.051854e-001 -2.051332e-003
      outer loop
         vertex -5.323404e+000 -2.767918e+000 -1.310000e+002
         vertex -5.391588e+000 -2.632637e+000 -1.500000e+002
         vertex -5.986867e+000 3.967604e-001 -1.310000e+002
      endloop
   endfacet
   facet normal 7.429189e-001 6.693782e-001 2.099953e-003
      outer loop
         vertex -5.323404e+000 -2.767918e+000 -1.310000e+002
         vertex -3.178378e+000 -5.088999e+000 -1.500000e+002
         vertex -5.391588e+000 -2.632637e+000 -1.500000e+002
      endloop
   endfacet
   facet normal 7.301115e-001 6.833272e-001 -1.049987e-003
      outer loop
         vertex -3.113879e+000 -5.128719e+000 -1.310000e+002
         vertex -3.178378e+000 -5.088999e+000 -1.500000e+002
         vertex -5.323404e+000 -2.767918e+000 -1.310000e+002
      endloop
   endfacet
   facet normal 2.694562e-001 9.630120e-001 1.098467e-003
      outer loop
         vertex -3.178378e+000 -5.088999e+000 -1.500000e+002
         vertex -3.113879e+000 -5.128719e+000 -1.310000e+002
         vertex 0.000000e+000 -6.000000e+000 -1.310000e+002
      endloop
   endfacet
   facet normal 2.755299e-001 9.612925e-001 0.000000e+000
      outer loop
         vertex -3.178378e+000 -5.088999e+000 -1.500000e+002
         vertex 0.000000e+000 -6.000000e+000 -1.310000e+002
         vertex 0.000000e+000 -6.000000e+000 -1.500000e+002
      endloop
   endfacet
   facet normal 1.400156e-001 -9.901403e-001 4.221224e-003
      outer loop
         vertex 8.496447e-001 -5.939538e+000 -1.500000e+001
         vertex 1.663652e+000 -5.764743e+000 -1.000000e+000
         vertex 0.000000e+000 -6.000000e+000 -1.000000e+000
      endloop
   endfacet
   facet normal 7.098257e-002 -9.974776e-001 0.000000e+000
      outer loop
         vertex 0.000000e+000 -6.000000e+000 -1.000000e+000
         vertex 0.000000e+000 -6.000000e+000 -1.500000e+001
         vertex 8.496447e-001 -5.939538e+000 -1.500000e+001
      endloop
   endfacet
   facet normal 4.088483e-001 -9.125184e-001 -1.237875e-002
      outer loop
         vertex 3.866989e+000 -4.587635e+000 -1.500000e+001
         vertex 1.663652e+000 -5.764743e+000 -1.000000e+000
         vertex 8.496447e-001 -5.939538e+000 -1.500000e+001
      endloop
   endfacet
   facet normal 5.258776e-001 -8.504858e-001 1.125511e-002
      outer loop
         vertex 3.866989e+000 -4.587635e+000 -1.500000e+001
         vertex 4.413853e+000 -4.064222e+000 -1.000000e+000
         vertex 1.663652e+000 -5.764743e+000 -1.000000e+000
      endloop
   endfacet
   facet normal 8.301673e-001 -5.573938e-001 -1.158866e-002
      outer loop
         vertex 5.710057e+000 -1.842619e+000 -1.500000e+001
         vertex 4.413853e+000 -4.064222e+000 -1.000000e+000
         vertex 3.866989e+000 -4.587635e+000 -1.500000e+001
      endloop
   endfacet
   facet normal 8.909060e-001 -4.540680e-001 1.043124e-002
      outer loop
         vertex 5.710057e+000 -1.842619e+000 -1.500000e+001
         vertex 5.882151e+000 -1.183342e+000 -1.000000e+000
         vertex 4.413853e+000 -4.064222e+000 -1.000000e+000
      endloop
   endfacet
   facet normal 9.993978e-001 -3.299883e-002 -1.073106e-002
      outer loop
         vertex 5.819170e+000 1.461939e+000 -1.500000e+001
         vertex 5.882151e+000 -1.183342e+000 -1.000000e+000
         vertex 5.710057e+000 -1.842619e+000 -1.500000e+001
      endloop
   endfacet
   facet normal 9.971954e-001 7.423170e-002 9.539908e-003
      outer loop
         vertex 5.819170e+000 1.461939e+000 -1.500000e+001
         vertex 5.642114e+000 2.041214e+000 -1.000000e+000
         vertex 5.882151e+000 -1.183342e+000 -1.000000e+000
      endloop
   endfacet
   facet normal 8.651444e-001 5.014271e-001 -9.806085e-003
      outer loop
         vertex 4.161192e+000 4.322555e+000 -1.500000e+001
         vertex 5.642114e+000 2.041214e+000 -1.000000e+000
         vertex 5.819170e+000 1.461939e+000 -1.500000e+001
      endloop
   endfacet
   facet normal 8.138714e-001 5.809817e-001 8.581244e-003
      outer loop
         vertex 4.161192e+000 4.322555e+000 -1.500000e+001
         vertex 3.763453e+000 4.672945e+000 -1.000000e+000
         vertex 5.642114e+000 2.041214e+000 -1.000000e+000
      endloop
   endfacet
   facet normal 4.681702e-001 8.835944e-001 -8.813859e-003
      outer loop
         vertex 1.239598e+000 5.870553e+000 -1.500000e+001
         vertex 3.763453e+000 4.672945e+000 -1.000000e+000
         vertex 4.161192e+000 4.322555e+000 -1.500000e+001
      endloop
   endfacet
   facet normal 3.941716e-001 9.190058e-001 7.555475e-003
      outer loop
         vertex 1.239598e+000 5.870553e+000 -1.500000e+001
         vertex 7.917840e-001 5.947527e+000 -1.000000e+000
         vertex 3.763453e+000 4.672945e+000 -1.000000e+000
      endloop
   endfacet
   facet normal -7.098062e-002 9.974476e-001 -7.754507e-003
      outer loop
         vertex -2.058421e+000 5.635859e+000 -1.500000e+001
         vertex 7.917840e-001 5.947527e+000 -1.000000e+000
         vertex 1.239598e+000 5.870553e+000 -1.500000e+001
      endloop
   endfacet
   facet normal -1.400140e-001 9.901284e-001 6.462667e-003
      outer loop
         vertex -2.058421e+000 5.635859e+000 -1.500000e+001
         vertex -2.409841e+000 5.494785e+000 -1.000000e+000
         vertex 7.917840e-001 5.947527e+000 -1.000000e+000
      endloop
   endfacet
   facet normal -5.885858e-001 8.084076e-001 -6.628276e-003
      outer loop
         vertex -4.731365e+000 3.689740e+000 -1.500000e+001
         vertex -2.409841e+000 5.494785e+000 -1.000000e+000
         vertex -2.058421e+000 5.635859e+000 -1.500000e+001
      endloop
   endfacet
   facet normal -6.335431e-001 7.736892e-001 5.302992e-003
      outer loop
         vertex -4.731365e+000 3.689740e+000 -1.500000e+001
         vertex -4.911582e+000 3.446209e+000 -1.000000e+000
         vertex -2.409841e+000 5.494785e+000 -1.000000e+000
      endloop
   endfacet
   facet normal -9.274629e-001 3.738757e-001 -5.435323e-003
      outer loop
         vertex -5.967551e+000 6.231694e-001 -1.500000e+001
         vertex -4.911582e+000 3.446209e+000 -1.000000e+000
         vertex -4.731365e+000 3.689740e+000 -1.500000e+001
      endloop
   endfacet
   facet normal -9.430787e-001 3.325448e-001 4.076713e-003
      outer loop
         vertex -5.967551e+000 6.231694e-001 -1.500000e+001
         vertex -5.986867e+000 3.967604e-001 -1.000000e+000
         vertex -4.911582e+000 3.446209e+000 -1.000000e+000
      endloop
   endfacet
   facet normal -9.847020e-001 -1.741971e-001 -4.175781e-003
      outer loop
         vertex -5.391588e+000 -2.632637e+000 -1.500000e+001
         vertex -5.986867e+000 3.967604e-001 -1.000000e+000
         vertex -5.967551e+000 6.231694e-001 -1.500000e+001
      endloop
   endfacet
   facet normal -9.787192e-001 -2.051850e-001 2.783946e-003
      outer loop
         vertex -5.391588e+000 -2.632637e+000 -1.500000e+001
         vertex -5.323404e+000 -2.767918e+000 -1.000000e+000
         vertex -5.986867e+000 3.967604e-001 -1.000000e+000
      endloop
   endfacet
   facet normal -7.429175e-001 -6.693770e-001 -2.849931e-003
      outer loop
         vertex -3.178378e+000 -5.088999e+000 -1.500000e+001
         vertex -5.323404e+000 -2.767918e+000 -1.000000e+000
         vertex -5.391588e+000 -2.632637e+000 -1.500000e+001
      endloop
   endfacet
   facet normal -7.301112e-001 -6.833269e-001 1.424981e-003
      outer loop
         vertex -3.178378e+000 -5.088999e+000 -1.500000e+001
         vertex -3.113879e+000 -5.128719e+000 -1.000000e+000
         vertex -5.323404e+000 -2.767918e+000 -1.000000e+000
      endloop
   endfacet
   facet normal -2.755296e-001 -9.612915e-001 -1.457915e-003
      outer loop
         vertex 0.000000e+000 -6.000000e+000 -1.500000e+001
         vertex -3.113879e+000 -5.128719e+000 -1.000000e+000
         vertex -3.178378e+000 -5.088999e+000 -1.500000e+001
      endloop
   endfacet
   facet normal -2.694564e-001 -9.630126e-001 -0.000000e+000
      outer loop
         vertex 0.000000e+000 -6.000000e+000 -1.500000e+001
         vertex 0.000000e+000 -6.000000e+000 -1.000000e+000
         vertex -3.113879e+000 -5.128719e+000 -1.000000e+000
      endloop
   endfacet
   facet normal 0.000000e+000 0.000000e+000 1.000000e+000
      outer loop
         vertex -3.178378e+000 -5.088999e+000 -1.500000e+001
         vertex -5.391588e+000 -2.632637e+000 -1.500000e+001
         vertex -5.870719e+000 -3.812434e+000 -1.500000e+001
      endloop
   endfacet
   facet normal 0.000000e+000 0.000000e+000 1.000000e+000
      outer loop
         vertex -5.870719e+000 -3.812434e+000 -1.500000e+001
         vertex -5.391588e+000 -2.632637e+000 -1.500000e+001
         vertex -6.978427e+000 -5.491435e-001 -1.500000e+001
      endloop
   endfacet
   facet normal 0.000000e+000 0.000000e+000 1.000000e+000
      outer loop
         vertex -6.978427e+000 -5.491435e-001 -1.500000e+001
         vertex -5.391588e+000 -2.632637e+000 -1.500000e+001
         vertex -5.967551e+000 6.231694e-001 -1.500000e+001
      endloop
   endfacet
   facet normal 0.000000e+000 0.000000e+000 1.000000e+000
      outer loop
         vertex -6.978427e+000 -5.491435e-001 -1.500000e+001
         vertex -5.967551e+000 6.231694e-001 -1.500000e+001
         vertex -6.394780e+000 2.847242e+000 -1.500000e+001
      endloop
   endfacet
   facet normal 0.000000e+000 -0.000000e+000 1.000000e+000
      outer loop
         vertex -6.394780e+000 2.847242e+000 -1.500000e+001
         vertex -5.967551e+000 6.231694e-001 -1.500000e+001
         vertex -4.731365e+000 3.689740e+000 -1.500000e+001
      endloop
   endfacet
   facet normal 0.000000e+000 -0.000000e+000 1.000000e+000
      outer loop
         vertex -6.394780e+000 2.847242e+000 -1.500000e+001
         vertex -4.731365e+000 3.689740e+000 -1.500000e+001
         vertex -4.261237e+000 5.553545e+000 -1.500000e+001
      endloop
   endfacet
   facet normal 0.000000e+000 0.000000e+000 1.000000e+000
      outer loop
         vertex -4.261237e+000 5.553545e+000 -1.500000e+001
         vertex -4.731365e+000 3.689740e+000 -1.500000e+001
         vertex -2.058421e+000 5.635859e+000 -1.500000e+001
      endloop
   endfacet
   facet normal 0.000000e+000 -0.000000e+000 1.000000e+000
      outer loop
         vertex -4.261237e+000 5.553545e+000 -1.500000e+001
         vertex -2.058421e+000 5.635859e+000 -1.500000e+001
         vertex -1.094902e+000 6.913840e+000 -1.500000e+001
      endloop
   endfacet
   facet normal 0.000000e+000 0.000000e+000 1.000000e+000
      outer loop
         vertex -1.094902e+000 6.913840e+000 -1.500000e+001
         vertex -2.058421e+000 5.635859e+000 -1.500000e+001
         vertex 1.239598e+000 5.870553e+000 -1.500000e+001
      endloop
   endfacet
   facet normal 0.000000e+000 -0.000000e+000 1.000000e+000
      outer loop
         vertex -1.094902e+000 6.913840e+000 -1.500000e+001
         vertex 1.239598e+000 5.870553e+000 -1.500000e+001
         vertex 2.336803e+000 6.598435e+000 -1.500000e+001
      endloop
   endfacet
   facet normal -0.000000e+000 0.000000e+000 1.000000e+000
      outer loop
         vertex 2.336803e+000 6.598435e+000 -1.500000e+001
         vertex 1.239598e+000 5.870553e+000 -1.500000e+001
         vertex 4.161192e+000 4.322555e+000 -1.500000e+001
      endloop
   endfacet
   facet normal 0.000000e+000 -0.000000e+000 1.000000e+000
      outer loop
         vertex 2.336803e+000 6.598435e+000 -1.500000e+001
         vertex 4.161192e+000 4.322555e+000 -1.500000e+001
         vertex 5.202139e+000 4.683775e+000 -1.500000e+001
      endloop
   endfacet
   facet normal -0.000000e+000 0.000000e+000 1.000000e+000
      outer loop
         vertex 5.202139e+000 4.683775e+000 -1.500000e+001
         vertex 4.161192e+000 4.322555e+000 -1.500000e+001
         vertex 5.819170e+000 1.461939e+000 -1.500000e+001
      endloop
   endfacet
   facet normal 0.000000e+000 -0.000000e+000 1.000000e+000
      outer loop
         vertex 5.202139e+000 4.683775e+000 -1.500000e+001
         vertex 5.819170e+000 1.461939e+000 -1.500000e+001
         vertex 6.806639e+000 1.633912e+000 -1.500000e+001
      endloop
   endfacet
   facet normal -0.000000e+000 0.000000e+000 1.000000e+000
      outer loop
         vertex 6.806639e+000 1.633912e+000 -1.500000e+001
         vertex 5.819170e+000 1.461939e+000 -1.500000e+001
         vertex 5.710057e+000 -1.842619e+000 -1.500000e+001
      endloop
   endfacet
   facet normal 0.000000e+000 0.000000e+000 1.000000e+000
      outer loop
         vertex 6.806639e+000 1.633912e+000 -1.500000e+001
         vertex 5.710057e+000 -1.842619e+000 -1.500000e+001
         vertex 6.761420e+000 -1.811960e+000 -1.500000e+001
      endloop
   endfacet
   facet normal -0.000000e+000 0.000000e+000 1.000000e+000
      outer loop
         vertex 6.761420e+000 -1.811960e+000 -1.500000e+001
         vertex 5.710057e+000 -1.842619e+000 -1.500000e+001
         vertex 3.866989e+000 -4.587635e+000 -1.500000e+001
      endloop
   endfacet
   facet normal -0.000000e+000 0.000000e+000 1.000000e+000
      outer loop
         vertex 6.761420e+000 -1.811960e+000 -1.500000e+001
         vertex 3.866989e+000 -4.587635e+000 -1.500000e+001
         vertex 5.077443e+000 -4.818669e+000 -1.500000e+001
      endloop
   endfacet
   facet normal 0.000000e+000 0.000000e+000 1.000000e+000
      outer loop
         vertex 5.077443e+000 -4.818669e+000 -1.500000e+001
         vertex 3.866989e+000 -4.587635e+000 -1.500000e+001
         vertex 8.496447e-001 -5.939538e+000 -1.500000e+001
      endloop
   endfacet
   facet normal -0.000000e+000 0.000000e+000 1.000000e+000
      outer loop
         vertex 5.077443e+000 -4.818669e+000 -1.500000e+001
         vertex 8.496447e-001 -5.939538e+000 -1.500000e+001
         vertex 2.162851e+000 -6.657483e+000 -1.500000e+001
      endloop
   endfacet
   facet normal 0.000000e+000 0.000000e+000 1.000000e+000
      outer loop
         vertex 2.162851e+000 -6.657483e+000 -1.500000e+001
         vertex 8.496447e-001 -5.939538e+000 -1.500000e+001
         vertex 0.000000e+000 -6.000000e+000 -1.500000e+001
      endloop
   endfacet
   facet normal 0.000000e+000 0.000000e+000 1.000000e+000
      outer loop
         vertex 2.162851e+000 -6.657483e+000 -1.500000e+001
         vertex 0.000000e+000 -6.000000e+000 -1.500000e+001
         vertex 0.000000e+000 -7.000000e+000 -1.500000e+001
      endloop
   endfacet
   facet normal 0.000000e+000 0.000000e+000 1.000000e+000
      outer loop
         vertex 0.000000e+000 -7.000000e+000 -1.500000e+001
         vertex 0.000000e+000 -6.000000e+000 -1.500000e+001
         vertex -3.178378e+000 -5.088999e+000 -1.500000e+001
      endloop
   endfacet
   facet normal 0.000000e+000 0.000000e+000 1.000000e+000
      outer loop
         vertex 0.000000e+000 -7.000000e+000 -1.500000e+001
         vertex -3.178378e+000 -5.088999e+000 -1.500000e+001
         vertex -5.870719e+000 -3.812434e+000 -1.500000e+001
      endloop
   endfacet
   facet normal 0.000000e+000 0.000000e+000 1.000000e+000
      outer loop
         vertex 0.000000e+000 -7.000000e+000 -1.500000e+001
         vertex -5.870719e+000 -3.812434e+000 -1.500000e+001
         vertex -3.340132e+000 -6.151709e+000 -1.500000e+001
      endloop
   endfacet
   facet normal 0.000000e+000 0.000000e+000 -1.000000e+000
      outer loop
         vertex 2.162851e+000 -6.657483e+000 -1.500000e+002
         vertex 0.000000e+000 -7.000000e+000 -1.500000e+002
         vertex 5.077443e+000 -4.818669e+000 -1.500000e+002
      endloop
   endfacet
   facet normal 0.000000e+000 0.000000e+000 -1.000000e+000
      outer loop
         vertex 5.077443e+000 -4.818669e+000 -1.500000e+002
         vertex 0.000000e+000 -7.000000e+000 -1.500000e+002
         vertex 8.496447e-001 -5.939538e+000 -1.500000e+002
      endloop
   endfacet
   facet normal 0.000000e+000 0.000000e+000 -1.000000e+000
      outer loop
         vertex 8.496447e-001 -5.939538e+000 -1.500000e+002
         vertex 0.000000e+000 -7.000000e+000 -1.500000e+002
         vertex 0.000000e+000 -6.000000e+000 -1.500000e+002
      endloop
   endfacet
   facet normal 0.000000e+000 -0.000000e+000 -1.000000e+000
      outer loop
         vertex 8.496447e-001 -5.939538e+000 -1.500000e+002
         vertex 3.866989e+000 -4.587635e+000 -1.500000e+002
         vertex 5.077443e+000 -4.818669e+000 -1.500000e+002
      endloop
   endfacet
   facet normal 0.000000e+000 0.000000e+000 -1.000000e+000
      outer loop
         vertex 5.077443e+000 -4.818669e+000 -1.500000e+002
         vertex 3.866989e+000 -4.587635e+000 -1.500000e+002
         vertex 6.761420e+000 -1.811960e+000 -1.500000e+002
      endloop
   endfacet
   facet normal 0.000000e+000 0.000000e+000 -1.000000e+000
      outer loop
         vertex 6.761420e+000 -1.811960e+000 -1.500000e+002
         vertex 3.866989e+000 -4.587635e+000 -1.500000e+002
         vertex 5.710057e+000 -1.842619e+000 -1.500000e+002
      endloop
   endfacet
   facet normal 0.000000e+000 0.000000e+000 -1.000000e+000
      outer loop
         vertex 6.761420e+000 -1.811960e+000 -1.500000e+002
         vertex 5.710057e+000 -1.842619e+000 -1.500000e+002
         vertex 6.806639e+000 1.633912e+000 -1.500000e+002
      endloop
   endfacet
   facet normal 0.000000e+000 0.000000e+000 -1.000000e+000
      outer loop
         vertex 6.806639e+000 1.633912e+000 -1.500000e+002
         vertex 5.710057e+000 -1.842619e+000 -1.500000e+002
         vertex 5.819170e+000 1.461939e+000 -1.500000e+002
      endloop
   endfacet
   facet normal 0.000000e+000 0.000000e+000 -1.000000e+000
      outer loop
         vertex 6.806639e+000 1.633912e+000 -1.500000e+002
         vertex 5.819170e+000 1.461939e+000 -1.500000e+002
         vertex 5.202139e+000 4.683775e+000 -1.500000e+002
      endloop
   endfacet
   facet normal 0.000000e+000 0.000000e+000 -1.000000e+000
      outer loop
         vertex 5.202139e+000 4.683775e+000 -1.500000e+002
         vertex 5.819170e+000 1.461939e+000 -1.500000e+002
         vertex 4.161192e+000 4.322555e+000 -1.500000e+002
      endloop
   endfacet
   facet normal 0.000000e+000 0.000000e+000 -1.000000e+000
      outer loop
         vertex 5.202139e+000 4.683775e+000 -1.500000e+002
         vertex 4.161192e+000 4.322555e+000 -1.500000e+002
         vertex 2.336803e+000 6.598435e+000 -1.500000e+002
      endloop
   endfacet
   facet normal 0.000000e+000 0.000000e+000 -1.000000e+000
      outer loop
         vertex 2.336803e+000 6.598435e+000 -1.500000e+002
         vertex 4.161192e+000 4.322555e+000 -1.500000e+002
         vertex 1.239598e+000 5.870553e+000 -1.500000e+002
      endloop
   endfacet
   facet normal 0.000000e+000 0.000000e+000 -1.000000e+000
      outer loop
         vertex 2.336803e+000 6.598435e+000 -1.500000e+002
         vertex 1.239598e+000 5.870553e+000 -1.500000e+002
         vertex -1.094902e+000 6.913840e+000 -1.500000e+002
      endloop
   endfacet
   facet normal -0.000000e+000 0.000000e+000 -1.000000e+000
      outer loop
         vertex -1.094902e+000 6.913840e+000 -1.500000e+002
         vertex 1.239598e+000 5.870553e+000 -1.500000e+002
         vertex -2.058421e+000 5.635859e+000 -1.500000e+002
      endloop
   endfacet
   facet normal -0.000000e+000 0.000000e+000 -1.000000e+000
      outer loop
         vertex -1.094902e+000 6.913840e+000 -1.500000e+002
         vertex -2.058421e+000 5.635859e+000 -1.500000e+002
         vertex -4.261237e+000 5.553545e+000 -1.500000e+002
      endloop
   endfacet
   facet normal 0.000000e+000 0.000000e+000 -1.000000e+000
      outer loop
         vertex -4.261237e+000 5.553545e+000 -1.500000e+002
         vertex -2.058421e+000 5.635859e+000 -1.500000e+002
         vertex -4.731365e+000 3.689740e+000 -1.500000e+002
      endloop
   endfacet
   facet normal -0.000000e+000 0.000000e+000 -1.000000e+000
      outer loop
         vertex -4.261237e+000 5.553545e+000 -1.500000e+002
         vertex -4.731365e+000 3.689740e+000 -1.500000e+002
         vertex -6.394780e+000 2.847242e+000 -1.500000e+002
      endloop
   endfacet
   facet normal 0.000000e+000 0.000000e+000 -1.000000e+000
      outer loop
         vertex -6.394780e+000 2.847242e+000 -1.500000e+002
         vertex -4.731365e+000 3.689740e+000 -1.500000e+002
         vertex -5.967551e+000 6.231694e-001 -1.500000e+002
      endloop
   endfacet
   facet normal -0.000000e+000 0.000000e+000 -1.000000e+000
      outer loop
         vertex -6.394780e+000 2.847242e+000 -1.500000e+002
         vertex -5.967551e+000 6.231694e-001 -1.500000e+002
         vertex -6.978427e+000 -5.491435e-001 -1.500000e+002
      endloop
   endfacet
   facet normal 0.000000e+000 -0.000000e+000 -1.000000e+000
      outer loop
         vertex -6.978427e+000 -5.491435e-001 -1.500000e+002
         vertex -5.967551e+000 6.231694e-001 -1.500000e+002
         vertex -5.391588e+000 -2.632637e+000 -1.500000e+002
      endloop
   endfacet
   facet normal -0.000000e+000 0.000000e+000 -1.000000e+000
      outer loop
         vertex -6.978427e+000 -5.491435e-001 -1.500000e+002
         vertex -5.391588e+000 -2.632637e+000 -1.500000e+002
         vertex -5.870719e+000 -3.812434e+000 -1.500000e+002
      endloop
   endfacet
   facet normal 0.000000e+000 -0.000000e+000 -1.000000e+000
      outer loop
         vertex -5.870719e+000 -3.812434e+000 -1.500000e+002
         vertex -5.391588e+000 -2.632637e+000 -1.500000e+002
         vertex -3.178378e+000 -5.088999e+000 -1.500000e+002
      endloop
   endfacet
   facet normal -0.000000e+000 0.000000e+000 -1.000000e+000
      outer loop
         vertex -5.870719e+000 -3.812434e+000 -1.500000e+002
         vertex -3.178378e+000 -5.088999e+000 -1.500000e+002
         vertex -3.340132e+000 -6.151709e+000 -1.500000e+002
      endloop
   endfacet
   facet normal 0.000000e+000 -0.000000e+000 -1.000000e+000
      outer loop
         vertex -3.340132e+000 -6.151709e+000 -1.500000e+002
         vertex -3.178378e+000 -5.088999e+000 -1.500000e+002
         vertex 0.000000e+000 -6.000000e+000 -1.500000e+002
      endloop
   endfacet
   facet normal 0.000000e+000 -0.000000e+000 -1.000000e+000
      outer loop
         vertex -3.340132e+000 -6.151709e+000 -1.500000e+002
         vertex 0.000000e+000 -6.000000e+000 -1.500000e+002
         vertex 0.000000e+000 -7.000000e+000 -1.500000e+002
      endloop
   endfacet
   facet normal 1.940901e-001 6.936602e-001 -6.936602e-001
      outer loop
         vertex -3.113879e+000 -5.128719e+000 -1.310000e+002
         vertex 0.000000e+000 -5.000000e+000 -1.300000e+002
         vertex 0.000000e+000 -6.000000e+000 -1.310000e+002
      endloop
   endfacet
   facet normal 2.018485e-001 6.696429e-001 -7.147276e-001
      outer loop
         vertex -3.113879e+000 -5.128719e+000 -1.310000e+002
         vertex -2.763210e+000 -4.167094e+000 -1.300000e+002
         vertex 0.000000e+000 -5.000000e+000 -1.300000e+002
      endloop
   endfacet
   facet normal 5.391530e-001 5.046050e-001 -6.743054e-001
      outer loop
         vertex -5.323404e+000 -2.767918e+000 -1.310000e+002
         vertex -2.763210e+000 -4.167094e+000 -1.300000e+002
         vertex -3.113879e+000 -5.128719e+000 -1.310000e+002
      endloop
   endfacet
   facet normal 5.236549e-001 4.343967e-001 -7.328609e-001
      outer loop
         vertex -5.323404e+000 -2.767918e+000 -1.310000e+002
         vertex -4.605822e+000 -1.945869e+000 -1.300000e+002
         vertex -2.763210e+000 -4.167094e+000 -1.300000e+002
      endloop
   endfacet
   facet normal 7.380301e-001 1.547254e-001 -6.567889e-001
      outer loop
         vertex -5.986867e+000 3.967604e-001 -1.310000e+002
         vertex -4.605822e+000 -1.945869e+000 -1.300000e+002
         vertex -5.323404e+000 -2.767918e+000 -1.310000e+002
      endloop
   endfacet
   facet normal 6.612095e-001 7.099986e-002 -7.468340e-001
      outer loop
         vertex -5.986867e+000 3.967604e-001 -1.310000e+002
         vertex -4.913947e+000 9.236468e-001 -1.300000e+002
         vertex -4.605822e+000 -1.945869e+000 -1.300000e+002
      endloop
   endfacet
   facet normal 7.233208e-001 -2.550546e-001 -6.416808e-001
      outer loop
         vertex -4.911582e+000 3.446209e+000 -1.310000e+002
         vertex -4.913947e+000 9.236468e-001 -1.300000e+002
         vertex -5.986867e+000 3.967604e-001 -1.310000e+002
      endloop
   endfacet
   facet normal 5.797164e-001 -3.007478e-001 -7.572843e-001
      outer loop
         vertex -4.911582e+000 3.446209e+000 -1.310000e+002
         vertex -3.584930e+000 3.485438e+000 -1.300000e+002
         vertex -4.913947e+000 9.236468e-001 -1.300000e+002
      endloop
   endfacet
   facet normal 4.922738e-001 -6.011696e-001 -6.294931e-001
      outer loop
         vertex -2.409841e+000 5.494785e+000 -1.310000e+002
         vertex -3.584930e+000 3.485438e+000 -1.300000e+002
         vertex -4.911582e+000 3.446209e+000 -1.310000e+002
      endloop
   endfacet
   facet normal 3.127357e-001 -5.634484e-001 -7.646714e-001
      outer loop
         vertex -2.409841e+000 5.494785e+000 -1.310000e+002
         vertex -1.061549e+000 4.886012e+000 -1.300000e+002
         vertex -3.584930e+000 3.485438e+000 -1.300000e+002
      endloop
   endfacet
   facet normal 1.097854e-001 -7.763626e-001 -6.206515e-001
      outer loop
         vertex 7.917840e-001 5.947527e+000 -1.310000e+002
         vertex -1.061549e+000 4.886012e+000 -1.300000e+002
         vertex -2.409841e+000 5.494785e+000 -1.310000e+002
      endloop
   endfacet
   facet normal -5.030887e-002 -6.368922e-001 -7.693096e-001
      outer loop
         vertex 7.917840e-001 5.947527e+000 -1.310000e+002
         vertex 1.815501e+000 4.658751e+000 -1.300000e+002
         vertex -1.061549e+000 4.886012e+000 -1.300000e+002
      endloop
   endfacet
   facet normal -3.106792e-001 -7.243443e-001 -6.154704e-001
      outer loop
         vertex 3.763453e+000 4.672945e+000 -1.310000e+002
         vertex 1.815501e+000 4.658751e+000 -1.300000e+002
         vertex 7.917840e-001 5.947527e+000 -1.310000e+002
      endloop
   endfacet
   facet normal -3.923505e-001 -5.010143e-001 -7.713921e-001
      outer loop
         vertex 3.763453e+000 4.672945e+000 -1.310000e+002
         vertex 4.087693e+000 2.879369e+000 -1.300000e+002
         vertex 1.815501e+000 4.658751e+000 -1.300000e+002
      endloop
   endfacet
   facet normal -6.423313e-001 -4.585279e-001 -6.141357e-001
      outer loop
         vertex 5.642114e+000 2.041214e+000 -1.310000e+002
         vertex 4.087693e+000 2.879369e+000 -1.300000e+002
         vertex 3.763453e+000 4.672945e+000 -1.310000e+002
      endloop
   endfacet
   facet normal -6.043199e-001 -2.008737e-001 -7.710040e-001
      outer loop
         vertex 5.642114e+000 2.041214e+000 -1.310000e+002
         vertex 4.998020e+000 1.406889e-001 -1.300000e+002
         vertex 4.087693e+000 2.879369e+000 -1.300000e+002
      endloop
   endfacet
   facet normal -7.850298e-001 -5.843799e-002 -6.166954e-001
      outer loop
         vertex 5.882151e+000 -1.183342e+000 -1.310000e+002
         vertex 4.998020e+000 1.406889e-001 -1.300000e+002
         vertex 5.642114e+000 2.041214e+000 -1.310000e+002
      endloop
   endfacet
   facet normal -6.180064e-001 1.674667e-001 -7.681295e-001
      outer loop
         vertex 5.882151e+000 -1.183342e+000 -1.310000e+002
         vertex 4.243195e+000 -2.644863e+000 -1.300000e+002
         vertex 4.998020e+000 1.406889e-001 -1.300000e+002
      endloop
   endfacet
   facet normal -6.968832e-001 3.551804e-001 -6.230575e-001
      outer loop
         vertex 4.413853e+000 -4.064222e+000 -1.310000e+002
         vertex 4.243195e+000 -2.644863e+000 -1.300000e+002
         vertex 5.882151e+000 -1.183342e+000 -1.310000e+002
      endloop
   endfacet
   facet normal -4.268090e-001 4.860024e-001 -7.626505e-001
      outer loop
         vertex 4.413853e+000 -4.064222e+000 -1.310000e+002
         vertex 2.074696e+000 -4.549246e+000 -1.300000e+002
         vertex 4.243195e+000 -2.644863e+000 -1.300000e+002
      endloop
   endfacet
   facet normal -4.071374e-001 6.584510e-001 -6.329941e-001
      outer loop
         vertex 1.663652e+000 -5.764743e+000 -1.310000e+002
         vertex 2.074696e+000 -4.549246e+000 -1.300000e+002
         vertex 4.413853e+000 -4.064222e+000 -1.310000e+002
      endloop
   endfacet
   facet normal -9.205958e-002 6.510127e-001 -7.534637e-001
      outer loop
         vertex 2.074696e+000 -4.549246e+000 -1.300000e+002
         vertex 1.663652e+000 -5.764743e+000 -1.310000e+002
         vertex 0.000000e+000 -6.000000e+000 -1.310000e+002
      endloop
   endfacet
   facet normal -1.518465e-001 6.989072e-001 -6.989072e-001
      outer loop
         vertex 2.074696e+000 -4.549246e+000 -1.300000e+002
         vertex 0.000000e+000 -6.000000e+000 -1.310000e+002
         vertex 0.000000e+000 -5.000000e+000 -1.300000e+002
      endloop
   endfacet
endsolid
